D:\school\WTK\thesis\model\3dpredictsim\Results\batch_windlass\Pog_s1_tmt_aCst_d00_k1000_WL10_ig24_pas_GRF.mot
nRows=20
nColumns=19

name D:\school\WTK\thesis\model\3dpredictsim\Results\batch_windlass\Pog_s1_tmt_aCst_d00_k1000_WL10_ig24_pas_GRF.mot
datacolumns 19
datarows 20
range 0.5366377040 0.7405600315
endheader
time 	ground_force_vx	ground_force_vy	ground_force_vz	ground_force_px	ground_force_py	ground_force_pz	1_ground_force_vx	1_ground_force_vy	1_ground_force_vz	1_ground_force_px	1_ground_force_py	1_ground_force_pz	ground_torque_x	ground_torque_y	ground_torque_z	1_ground_torque_x	1_ground_torque_y	1_ground_torque_z
        0.5366377040	       95.0504153882	      424.9985239688	        2.4868335674	        0.3345996449	        0.0000000000	        0.0331270970	      -98.0018019975	       81.5371664896	      -33.8720337241	        0.8021072788	        0.0000000000	       -0.0404751525	        0.0000000000	        0.0000000000	        0.0000000000	        0.0000000000	        0.0000000000	        0.0000000000	
        0.5473704580	       65.7947750449	      328.5716711256	       11.2489754400	        0.3406790035	        0.0000000000	        0.0307146455	     -142.7563535670	      161.3645022097	      -73.9524036807	        0.8118701977	        0.0000000000	       -0.0392377603	        0.0000000000	        0.0000000000	        0.0000000000	        0.0000000000	        0.0000000000	        0.0000000000	
        0.5581032121	       31.3183972103	      218.5741508399	       13.1088681206	        0.3523101057	        0.0000000000	        0.0250681841	      -66.4948208499	      350.6468862217	      -29.1626559945	        0.8246483369	        0.0000000000	       -0.0396040528	        0.0000000000	        0.0000000000	        0.0000000000	        0.0000000000	        0.0000000000	        0.0000000000	
        0.5688359662	        9.6743275170	      151.2845205444	       13.2470242187	        0.3644549282	        0.0000000000	        0.0181461845	      -69.5225157932	      579.5806703393	        2.6070028417	        0.8335743258	        0.0000000000	       -0.0411393567	        0.0000000000	        0.0000000000	        0.0000000000	        0.0000000000	        0.0000000000	        0.0000000000	
        0.5795687203	        2.1746517914	      118.9227762605	       11.4114782013	        0.3642537776	        0.0000000000	        0.0182340892	      -99.4374598140	      790.9289997542	       11.6653450788	        0.8416536259	        0.0000000000	       -0.0415568433	        0.0000000000	        0.0000000000	        0.0000000000	        0.0000000000	        0.0000000000	        0.0000000000	
        0.5903014744	       -4.5351301943	       77.0229130850	        9.8840711316	        0.3643610674	        0.0000000000	        0.0182642929	     -120.8517964666	      929.1852895383	       15.5595941838	        0.8516004849	        0.0000000000	       -0.0409983372	        0.0000000000	        0.0000000000	        0.0000000000	        0.0000000000	        0.0000000000	        0.0000000000	
        0.6010342284	       -9.7716507594	       27.6669321077	        4.8533913248	        0.3635580355	        0.0000000000	        0.0182019703	     -127.3648810178	      955.1941337454	       13.2926613793	        0.8586387615	        0.0000000000	       -0.0403124842	        0.0000000000	        0.0000000000	        0.0000000000	        0.0000000000	        0.0000000000	        0.0000000000	
        0.6117669825	        0.1029458964	       -0.1087823721	       -0.0129994207	        0.0000000000	        0.0000000000	        0.0000000000	     -115.8432712105	      911.6237936266	       10.8856054241	        0.8623006628	        0.0000000000	       -0.0397976567	        0.0000000000	        0.0000000000	        0.0000000000	        0.0000000000	        0.0000000000	        0.0000000000	
        0.6224997366	        0.0001973966	       -0.0001759807	       -0.0000049217	        0.0000000000	        0.0000000000	        0.0000000000	      -98.5854115382	      848.7188134292	       11.1647936744	        0.8654129506	        0.0000000000	       -0.0394043767	        0.0000000000	        0.0000000000	        0.0000000000	        0.0000000000	        0.0000000000	        0.0000000000	
        0.6332324907	        0.0000083931	       -0.0000064292	        0.0000001422	        0.0000000000	        0.0000000000	        0.0000000000	      -83.9830800256	      792.3512434187	       12.6312602003	        0.8685903833	        0.0000000000	       -0.0391227752	        0.0000000000	        0.0000000000	        0.0000000000	        0.0000000000	        0.0000000000	        0.0000000000	
        0.6439652448	        0.0000150637	       -0.0000101039	        0.0000006548	        0.0000000000	        0.0000000000	        0.0000000000	      -71.2923963453	      746.9270856715	       13.9146235280	        0.8718255485	        0.0000000000	       -0.0389472239	        0.0000000000	        0.0000000000	        0.0000000000	        0.0000000000	        0.0000000000	        0.0000000000	
        0.6546979988	        0.0002884354	       -0.0001736766	        0.0000176097	        0.0000000000	        0.0000000000	        0.0000000000	      -59.0925251485	      708.8280204551	       14.5821837895	        0.8750822869	        0.0000000000	       -0.0388642578	        0.0000000000	        0.0000000000	        0.0000000000	        0.0000000000	        0.0000000000	        0.0000000000	
        0.6654307529	       -0.0024227911	        0.0013413549	       -0.0001760838	        0.0000000000	        0.0000000000	        0.0000000000	      -47.9123899286	      677.0348551461	       16.1513276397	        0.8793678236	        0.0000000000	       -0.0388081221	        0.0000000000	        0.0000000000	        0.0000000000	        0.0000000000	        0.0000000000	        0.0000000000	
        0.6761635070	       -0.0110167302	        0.0057181992	       -0.0009007088	        0.0000000000	        0.0000000000	        0.0000000000	      -40.2937730199	      651.0507087982	       18.0337153329	        0.8847497988	        0.0000000000	       -0.0387376033	        0.0000000000	        0.0000000000	        0.0000000000	        0.0000000000	        0.0000000000	        0.0000000000	
        0.6868962611	       -0.0074807945	        0.0036901734	       -0.0006684167	        0.0000000000	        0.0000000000	        0.0000000000	      -35.0381891648	      630.3597000464	       19.4158708151	        0.8905612351	        0.0000000000	       -0.0386630912	        0.0000000000	        0.0000000000	        0.0000000000	        0.0000000000	        0.0000000000	        0.0000000000	
        0.6976290152	       -0.0058258462	        0.0027548887	       -0.0005582387	        0.0000000000	        0.0000000000	        0.0000000000	      -30.7565162495	      614.9876832287	       20.4548668722	        0.8967083177	        0.0000000000	       -0.0385767949	        0.0000000000	        0.0000000000	        0.0000000000	        0.0000000000	        0.0000000000	        0.0000000000	
        0.7083617692	       -0.0059520251	        0.0027130044	       -0.0006020550	        0.0000000000	        0.0000000000	        0.0000000000	      -27.7004149873	      603.9223434896	       20.9500363105	        0.9029371404	        0.0000000000	       -0.0384777371	        0.0000000000	        0.0000000000	        0.0000000000	        0.0000000000	        0.0000000000	        0.0000000000	
        0.7190945233	       -0.0080021137	        0.0035299693	       -0.0008410223	        0.0000000000	        0.0000000000	        0.0000000000	      -25.1622756254	      596.0696591032	       20.6235911040	        0.9089939243	        0.0000000000	       -0.0383825399	        0.0000000000	        0.0000000000	        0.0000000000	        0.0000000000	        0.0000000000	        0.0000000000	
        0.7298272774	       -0.0134572472	        0.0057645170	       -0.0014454899	        0.0000000000	        0.0000000000	        0.0000000000	      -22.8603927427	      590.7687329763	       19.9534153320	        0.9149629444	        0.0000000000	       -0.0382755960	        0.0000000000	        0.0000000000	        0.0000000000	        0.0000000000	        0.0000000000	        0.0000000000	
        0.7405600315	       -0.0263280639	        0.0109877008	       -0.0028540653	        0.0000000000	        0.0000000000	        0.0000000000	      -21.7041346532	      587.5275155003	       19.0447853714	        0.9207627360	        0.0000000000	       -0.0381547878	        0.0000000000	        0.0000000000	        0.0000000000	        0.0000000000	        0.0000000000	        0.0000000000	
